<svg data-v-423bf9ae="" xmlns="http://www.w3.org/2000/svg" viewBox="0 0 554 90" class="iconLeft"><!----><defs data-v-423bf9ae=""><linearGradient data-v-423bf9ae="" gradientTransform="rotate(25)" id="18633614-46e1-4444-837c-0bb1228193c9" x1="0%" y1="0%" x2="100%" y2="0%"><stop data-v-423bf9ae="" offset="0%" style="stop-color: rgb(30, 11, 54); stop-opacity: 1;"></stop><stop data-v-423bf9ae="" offset="100%" style="stop-color: rgb(202, 55, 130); stop-opacity: 1;"></stop></linearGradient></defs><!----><g data-v-423bf9ae="" id="99dbb369-6690-4520-8bf1-68050414851c" fill="#ffffff" transform="matrix(6.128702184780957,0,0,6.128702184780957,164.03141596457021,8.748723411581977)"><path d="M1.58 1.24L2.43 1.24L2.43 2.69L2.43 2.69Q2.73 2.43 3.10 2.13L3.10 2.13L3.10 2.13Q3.47 1.84 3.92 1.59L3.92 1.59L3.92 1.59Q4.36 1.35 4.88 1.18L4.88 1.18L4.88 1.18Q5.40 1.02 6.00 1.02L6.00 1.02L6.00 1.02Q6.95 1.02 7.68 1.45L7.68 1.45L7.68 1.45Q8.41 1.87 8.86 2.77L8.86 2.77L8.86 2.77Q9.30 2.37 9.76 2.04L9.76 2.04L9.76 2.04Q10.23 1.72 10.72 1.49L10.72 1.49L10.72 1.49Q11.20 1.26 11.72 1.14L11.72 1.14L11.72 1.14Q12.24 1.02 12.80 1.02L12.80 1.02L12.80 1.02Q13.50 1.02 14.08 1.26L14.08 1.26L14.08 1.26Q14.66 1.50 15.06 1.91L15.06 1.91L15.06 1.91Q15.46 2.33 15.69 2.90L15.69 2.90L15.69 2.90Q15.91 3.46 15.91 4.10L15.91 4.10L15.91 10.64L15.05 10.64L15.05 4.32L15.05 4.32Q15.05 3.73 14.91 3.27L14.91 3.27L14.91 3.27Q14.77 2.81 14.48 2.49L14.48 2.49L14.48 2.49Q14.18 2.17 13.72 2.00L13.72 2.00L13.72 2.00Q13.25 1.83 12.61 1.83L12.61 1.83L12.61 1.83Q12.10 1.83 11.60 1.98L11.60 1.98L11.60 1.98Q11.09 2.13 10.64 2.37L10.64 2.37L10.64 2.37Q10.18 2.61 9.78 2.92L9.78 2.92L9.78 2.92Q9.39 3.23 9.08 3.55L9.08 3.55L9.08 3.55Q9.12 3.75 9.12 3.88L9.12 3.88L9.12 3.88Q9.13 4.02 9.13 4.21L9.13 4.21L9.13 10.64L8.27 10.64L8.27 4.32L8.27 4.32Q8.27 3.62 8.09 3.15L8.09 3.15L8.09 3.15Q7.90 2.67 7.57 2.38L7.57 2.38L7.57 2.38Q7.25 2.08 6.80 1.96L6.80 1.96L6.80 1.96Q6.35 1.83 5.82 1.83L5.82 1.83L5.82 1.83Q5.33 1.83 4.84 2.00L4.84 2.00L4.84 2.00Q4.35 2.17 3.90 2.45L3.90 2.45L3.90 2.45Q3.46 2.72 3.08 3.06L3.08 3.06L3.08 3.06Q2.71 3.40 2.43 3.73L2.43 3.73L2.43 10.64L1.58 10.64L1.58 1.24ZM29.28 5.93L29.28 5.93L29.28 5.93Q29.28 6.84 29.09 7.54L29.09 7.54L29.09 7.54Q28.90 8.24 28.56 8.76L28.56 8.76L28.56 8.76Q28.22 9.28 27.73 9.64L27.73 9.64L27.73 9.64Q27.24 10.00 26.64 10.22L26.64 10.22L26.64 10.22Q26.04 10.44 25.34 10.54L25.34 10.54L25.34 10.54Q24.64 10.64 23.87 10.64L23.87 10.64L19.02 10.64L19.02 1.24L23.86 1.24L23.86 1.24Q25.01 1.24 26.00 1.47L26.00 1.47L26.00 1.47Q27.00 1.70 27.72 2.24L27.72 2.24L27.72 2.24Q28.45 2.78 28.86 3.68L28.86 3.68L28.86 3.68Q29.28 4.59 29.28 5.93ZM28.40 5.93L28.40 5.93L28.40 5.93Q28.40 5.17 28.25 4.58L28.25 4.58L28.25 4.58Q28.10 3.99 27.82 3.56L27.82 3.56L27.82 3.56Q27.54 3.12 27.13 2.83L27.13 2.83L27.13 2.83Q26.73 2.54 26.22 2.35L26.22 2.35L26.22 2.35Q25.72 2.17 25.12 2.10L25.12 2.10L25.12 2.10Q24.53 2.02 23.86 2.02L23.86 2.02L19.88 2.02L19.88 9.85L23.86 9.85L23.86 9.85Q24.86 9.85 25.70 9.67L25.70 9.67L25.70 9.67Q26.53 9.49 27.13 9.04L27.13 9.04L27.13 9.04Q27.73 8.59 28.06 7.84L28.06 7.84L28.06 7.84Q28.40 7.08 28.40 5.93ZM41.23 9.15L41.23 10.14L41.23 10.14Q40.66 10.32 40.17 10.45L40.17 10.45L40.17 10.45Q39.68 10.58 39.20 10.65L39.20 10.65L39.20 10.65Q38.72 10.73 38.22 10.77L38.22 10.77L38.22 10.77Q37.73 10.81 37.13 10.81L37.13 10.81L37.13 10.81Q35.75 10.81 34.64 10.47L34.64 10.47L34.64 10.47Q33.52 10.14 32.74 9.51L32.74 9.51L32.74 9.51Q31.96 8.89 31.53 8.00L31.53 8.00L31.53 8.00Q31.11 7.11 31.11 6.00L31.11 6.00L31.11 6.00Q31.11 4.93 31.52 4.03L31.52 4.03L31.52 4.03Q31.92 3.14 32.66 2.50L32.66 2.50L32.66 2.50Q33.39 1.85 34.41 1.50L34.41 1.50L34.41 1.50Q35.42 1.14 36.65 1.14L36.65 1.14L36.65 1.14Q37.93 1.14 38.93 1.48L38.93 1.48L38.93 1.48Q39.93 1.83 40.61 2.46L40.61 2.46L40.61 2.46Q41.30 3.10 41.65 4.00L41.65 4.00L41.65 4.00Q42.01 4.91 42.01 6.04L42.01 6.04L42.01 6.25L31.99 6.25L31.99 6.25Q32.07 7.13 32.43 7.83L32.43 7.83L32.43 7.83Q32.79 8.54 33.46 9.03L33.46 9.03L33.46 9.03Q34.13 9.52 35.10 9.79L35.10 9.79L35.10 9.79Q36.07 10.05 37.37 10.05L37.37 10.05L37.37 10.05Q37.93 10.05 38.49 9.97L38.49 9.97L38.49 9.97Q39.06 9.90 39.58 9.77L39.58 9.77L39.58 9.77Q40.10 9.65 40.53 9.48L40.53 9.48L40.53 9.48Q40.96 9.32 41.23 9.15L41.23 9.15ZM31.99 5.51L41.17 5.51L41.17 5.51Q41.12 4.79 40.84 4.14L40.84 4.14L40.84 4.14Q40.57 3.49 40.03 2.99L40.03 2.99L40.03 2.99Q39.48 2.49 38.65 2.19L38.65 2.19L38.65 2.19Q37.81 1.90 36.64 1.90L36.64 1.90L36.64 1.90Q35.54 1.90 34.71 2.19L34.71 2.19L34.71 2.19Q33.89 2.49 33.31 2.98L33.31 2.98L33.31 2.98Q32.74 3.48 32.41 4.13L32.41 4.13L32.41 4.13Q32.08 4.79 31.99 5.51L31.99 5.51ZM53.87 1.24L49.14 10.64L47.86 10.64L43.17 1.24L44.13 1.24L48.52 10.05L52.92 1.24L53.87 1.24ZM63.53 10.64L55.25 10.64L55.25 9.94L62.06 2.04L55.43 2.04L55.43 1.24L63.38 1.24L63.38 1.70L56.37 9.84L63.53 9.84L63.53 10.64Z"></path></g><!----><g data-v-423bf9ae="" id="f2bca66f-576c-40d0-ab04-c52cf1dc5123" transform="matrix(4.803586662404586,0,0,4.803586662404586,0.14261340152661717,-31.22538662899096)" stroke="none" fill="#ffffff"><path d="M16 19.586l7.496-12.954H8.504zM7.496 12.414L0 25.368h14.992zM24.504 12.414l-7.496 12.954H32z"></path></g><!----></svg>