<?xml version="1.0" standalone="no"?>
<!DOCTYPE svg PUBLIC "-//W3C//DTD SVG 20010904//EN"
 "http://www.w3.org/TR/2001/REC-SVG-20010904/DTD/svg10.dtd">
<svg version="1.0" xmlns="http://www.w3.org/2000/svg"
 width="700.000000pt" height="700.000000pt" viewBox="0 0 700.000000 700.000000"
 preserveAspectRatio="xMidYMid meet">
<metadata>
Created by potrace 1.11, written by Peter Selinger 2001-2013
</metadata>
<g transform="translate(0.000000,700.000000) scale(0.100000,-0.100000)"
fill="#000000" stroke="none">
<path d="M2020 5366 c0 -1 61 -108 135 -235 74 -128 135 -237 135 -242 0 -5 5
-9 10 -9 6 0 10 -4 10 -9 0 -5 95 -172 210 -371 116 -199 210 -366 210 -371 0
-5 5 -9 10 -9 6 0 10 -4 10 -9 0 -9 56 -108 343 -601 88 -151 171 -295 185
-320 14 -25 35 -61 47 -80 12 -19 25 -42 28 -50 4 -8 15 -28 25 -45 10 -16 30
-50 44 -75 72 -127 75 -131 85 -118 10 12 322 549 369 633 12 22 135 236 274
475 138 239 262 453 275 475 12 22 118 204 234 404 116 200 211 366 211 368 0
3 8 17 19 31 10 15 35 57 55 95 l37 67 -1480 0 c-815 0 -1481 -2 -1481 -4z"/>
<path d="M1661 3953 c-85 -148 -178 -308 -208 -356 -29 -49 -53 -90 -53 -92 0
-2 -23 -43 -51 -92 -29 -48 -76 -131 -107 -183 -30 -52 -63 -108 -72 -125 -10
-16 -41 -70 -70 -120 -29 -49 -64 -110 -78 -135 -67 -119 -431 -747 -509 -877
-24 -40 -43 -75 -43 -78 0 -2 -16 -29 -35 -59 -19 -30 -35 -57 -35 -60 0 -3
-13 -28 -30 -54 -16 -27 -30 -51 -30 -54 0 -3 666 -5 1480 -5 813 0 1478 3
1476 6 -23 42 -254 441 -298 514 -32 54 -58 100 -58 102 0 2 -25 45 -55 95
-30 50 -55 93 -55 95 0 3 -18 34 -40 70 -22 36 -40 67 -40 69 0 2 -24 43 -53
92 -29 49 -67 114 -84 144 -16 30 -88 154 -158 275 -131 226 -442 763 -477
825 -46 80 -159 270 -161 270 -1 0 -72 -120 -156 -267z"/>
<path d="M5173 4208 c-5 -7 -159 -272 -342 -588 -183 -316 -337 -582 -342
-590 -11 -19 -244 -422 -274 -475 -12 -22 -62 -107 -110 -190 -48 -82 -99
-170 -112 -195 -14 -25 -75 -130 -136 -235 -60 -104 -121 -208 -133 -231 l-24
-41 1480 0 c814 0 1480 2 1480 4 0 3 -43 79 -96 171 -54 92 -105 181 -115 198
-9 17 -36 62 -58 99 -23 37 -41 68 -41 70 0 3 -105 187 -140 245 -5 8 -60 103
-121 210 -62 107 -137 235 -166 283 -29 48 -53 89 -53 91 0 2 -44 80 -98 172
-54 93 -136 234 -181 314 -46 80 -91 156 -100 170 -8 14 -21 34 -27 45 -42 76
-51 93 -65 115 -9 14 -53 90 -99 170 -122 213 -115 203 -127 188z"/>
</g>
</svg>
