<svg width="554" height="120" xmlns="http://www.w3.org/2000/svg" class="iconLeft">
 <!---->

 <!---->
 <!---->
 <!---->
 <!---->
 <g>
  <title>background</title>
  <rect fill="none" id="canvas_background" height="122" width="556" y="-1" x="-1"/>
 </g>
 <g>
  <title>Layer 1</title>
  <g transform="matrix(5.582748408269983,0,0,4.64595160906955,164.80494164694397,10.019193363600671) " fill="white" id="47950d4c-3ed0-4e25-ba96-a0580e29eaea">
   <path fill="#000000" id="svg_1" d="m2.47562,1.45524l0.85,0l0,1.45l0,0q0.3,-0.26 0.67,-0.56l0,0l0,0q0.37,-0.29 0.82,-0.54l0,0l0,0q0.44,-0.24 0.96,-0.41l0,0l0,0q0.52,-0.16 1.12,-0.16l0,0l0,0q0.95,0 1.68,0.43l0,0l0,0q0.73,0.42 1.18,1.32l0,0l0,0q0.44,-0.4 0.9,-0.73l0,0l0,0q0.47,-0.32 0.96,-0.55l0,0l0,0q0.48,-0.23 1,-0.35l0,0l0,0q0.52,-0.12 1.08,-0.12l0,0l0,0q0.7,0 1.28,0.24l0,0l0,0q0.58,0.24 0.98,0.65l0,0l0,0q0.4,0.42 0.63,0.99l0,0l0,0q0.22,0.56 0.22,1.2l0,0l0,6.54l-0.86,0l0,-6.32l0,0q0,-0.59 -0.14,-1.05l0,0l0,0q-0.14,-0.46 -0.43,-0.78l0,0l0,0q-0.3,-0.32 -0.76,-0.49l0,0l0,0q-0.47,-0.17 -1.11,-0.17l0,0l0,0q-0.51,0 -1.01,0.15l0,0l0,0q-0.51,0.15 -0.96,0.39l0,0l0,0q-0.46,0.24 -0.86,0.55l0,0l0,0q-0.39,0.31 -0.7,0.63l0,0l0,0q0.04,0.2 0.04,0.33l0,0l0,0q0.01,0.14 0.01,0.33l0,0l0,6.43l-0.86,0l0,-6.32l0,0q0,-0.7 -0.18,-1.17l0,0l0,0q-0.19,-0.48 -0.52,-0.77l0,0l0,0q-0.32,-0.3 -0.77,-0.42l0,0l0,0q-0.45,-0.13 -0.98,-0.13l0,0l0,0q-0.49,0 -0.98,0.17l0,0l0,0q-0.49,0.17 -0.94,0.45l0,0l0,0q-0.44,0.27 -0.82,0.61l0,0l0,0q-0.37,0.34 -0.65,0.67l0,0l0,6.91l-0.85,0l0,-9.4zm27.7,4.69l0,0l0,0q0,0.91 -0.19,1.61l0,0l0,0q-0.19,0.7 -0.53,1.22l0,0l0,0q-0.34,0.52 -0.83,0.88l0,0l0,0q-0.49,0.36 -1.09,0.58l0,0l0,0q-0.6,0.22 -1.3,0.32l0,0l0,0q-0.7,0.1 -1.47,0.1l0,0l-4.85,0l0,-9.4l4.84,0l0,0q1.15,0 2.14,0.23l0,0l0,0q1,0.23 1.72,0.77l0,0l0,0q0.73,0.54 1.14,1.44l0,0l0,0q0.42,0.91 0.42,2.25zm-0.88,0l0,0l0,0q0,-0.76 -0.15,-1.35l0,0l0,0q-0.15,-0.59 -0.43,-1.02l0,0l0,0q-0.28,-0.44 -0.69,-0.73l0,0l0,0q-0.4,-0.29 -0.91,-0.48l0,0l0,0q-0.5,-0.18 -1.1,-0.25l0,0l0,0q-0.59,-0.08 -1.26,-0.08l0,0l-3.98,0l0,7.83l3.98,0l0,0q1,0 1.84,-0.18l0,0l0,0q0.83,-0.18 1.43,-0.63l0,0l0,0q0.6,-0.45 0.93,-1.2l0,0l0,0q0.34,-0.76 0.34,-1.91zm12.83,3.22l0,0.99l0,0q-0.57,0.18 -1.06,0.31l0,0l0,0q-0.49,0.13 -0.97,0.2l0,0l0,0q-0.48,0.08 -0.98,0.12l0,0l0,0q-0.49,0.04 -1.09,0.04l0,0l0,0q-1.38,0 -2.49,-0.34l0,0l0,0q-1.12,-0.33 -1.9,-0.96l0,0l0,0q-0.78,-0.62 -1.21,-1.51l0,0l0,0q-0.42,-0.89 -0.42,-2l0,0l0,0q0,-1.07 0.41,-1.97l0,0l0,0q0.4,-0.89 1.14,-1.53l0,0l0,0q0.73,-0.65 1.75,-1l0,0l0,0q1.01,-0.36 2.24,-0.36l0,0l0,0q1.28,0 2.28,0.34l0,0l0,0q1,0.35 1.68,0.98l0,0l0,0q0.69,0.64 1.04,1.54l0,0l0,0q0.36,0.91 0.36,2.04l0,0l0,0.21l-10.02,0l0,0q0.08,0.88 0.44,1.58l0,0l0,0q0.36,0.71 1.03,1.2l0,0l0,0q0.67,0.49 1.64,0.76l0,0l0,0q0.97,0.26 2.27,0.26l0,0l0,0q0.56,0 1.12,-0.08l0,0l0,0q0.57,-0.07 1.09,-0.2l0,0l0,0q0.52,-0.12 0.95,-0.29l0,0l0,0q0.43,-0.16 0.7,-0.33l0,0zm-9.24,-3.64l9.18,0l0,0q-0.05,-0.72 -0.33,-1.37l0,0l0,0q-0.27,-0.65 -0.81,-1.15l0,0l0,0q-0.55,-0.5 -1.38,-0.8l0,0l0,0q-0.84,-0.29 -2.01,-0.29l0,0l0,0q-1.1,0 -1.93,0.29l0,0l0,0q-0.82,0.3 -1.4,0.79l0,0l0,0q-0.57,0.5 -0.9,1.15l0,0l0,0q-0.33,0.66 -0.42,1.38l0,0zm21.88,-4.27l-4.73,9.4l-1.28,0l-4.69,-9.4l0.96,0l4.39,8.81l4.4,-8.81l0.95,0zm9.66,9.4l-8.28,0l0,-0.7l6.81,-7.9l-6.63,0l0,-0.8l7.95,0l0,0.46l-7.01,8.14l7.16,0l0,0.8z"/>
  </g>
  <g fill="white" transform="matrix(4.803586662404586,0,0,4.803586662404586,0.14261340152661717,-31.22538662899096) " id="54f13d5f-779c-446d-bb54-43b76e5721fa">
   <path fill="#000000" id="svg_2" d="m17.66542,22.70867l7.496,-12.954l-14.992,0l7.496,12.954zm-8.504,-7.172l-7.496,12.954l14.992,0l-7.496,-12.954zm17.008,0l-7.496,12.954l14.992,0l-7.496,-12.954z"/>
  </g>
  <text stroke="#000" transform="matrix(1.4330614609397057,0,0,1.3545434668883396,-79.40087929382132,-25.661560696741347) " xml:space="preserve" text-anchor="start" font-family="Oswald, sans-serif" font-size="24" id="svg_3" y="92.89694" x="248.19603" stroke-width="0" fill="#000000">TOOLS</text>
 </g>
</svg>